<?xml version="1.0" encoding="windows-1252"?>
<!-- Uploaded to: SVG Repo, www.svgrepo.com, Generator: SVG Repo Mixer Tools -->
<!DOCTYPE svg PUBLIC "-//W3C//DTD SVG 1.1//EN" "http://www.w3.org/Graphics/SVG/1.1/DTD/svg11.dtd">
<svg fill="#000000" height="800px" width="800px" version="1.1" id="Capa_1" xmlns="http://www.w3.org/2000/svg" xmlns:xlink="http://www.w3.org/1999/xlink" viewBox="0 0 472.944 472.944" xml:space="preserve">
<g>
	<circle cx="31.751" cy="183.711" r="6.291"/>
	<circle cx="39.824" cy="204.661" r="6.291"/>
	<circle cx="47.896" cy="225.612" r="6.291"/>
	<circle cx="55.969" cy="246.562" r="6.291"/>
	<circle cx="64.041" cy="267.513" r="6.291"/>
	<circle cx="72.114" cy="288.463" r="6.291"/>
	<circle cx="80.186" cy="309.414" r="6.291"/>
	<circle cx="88.259" cy="330.364" r="6.291"/>
	<circle cx="96.331" cy="351.315" r="6.291"/>
	<circle cx="104.404" cy="372.265" r="6.291"/>
	<circle cx="39.992" cy="168.348" r="6.291"/>
	<circle cx="48.064" cy="189.298" r="6.291"/>
	<circle cx="56.137" cy="210.249" r="6.291"/>
	<circle cx="64.209" cy="231.199" r="6.291"/>
	<circle cx="72.282" cy="252.15" r="6.291"/>
	<circle cx="80.354" cy="273.1" r="6.291"/>
	<circle cx="88.427" cy="294.051" r="6.291"/>
	<circle cx="96.499" cy="315.001" r="6.291"/>
	<circle cx="104.572" cy="335.952" r="6.291"/>
	<circle cx="112.644" cy="356.902" r="6.291"/>
	<circle cx="64.65" cy="158.846" r="6.291"/>
	<circle cx="72.723" cy="179.797" r="6.291"/>
	<circle cx="80.795" cy="200.747" r="6.291"/>
	<circle cx="88.868" cy="221.698" r="6.291"/>
	<circle cx="96.94" cy="242.648" r="6.291"/>
	<circle cx="105.013" cy="263.599" r="6.291"/>
	<circle cx="113.085" cy="284.549" r="6.291"/>
	<circle cx="121.158" cy="305.5" r="6.291"/>
	<circle cx="129.23" cy="326.451" r="6.291"/>
	<circle cx="137.303" cy="347.401" r="6.291"/>
	<circle cx="56.41" cy="174.209" r="6.291"/>
	<circle cx="64.482" cy="195.16" r="6.291"/>
	<circle cx="72.555" cy="216.11" r="6.291"/>
	<circle cx="80.627" cy="237.061" r="6.291"/>
	<circle cx="88.7" cy="258.011" r="6.291"/>
	<circle cx="96.772" cy="278.962" r="6.291"/>
	<circle cx="104.845" cy="299.912" r="6.291"/>
	<circle cx="112.917" cy="320.863" r="6.291"/>
	<circle cx="120.99" cy="341.813" r="6.291"/>
	<circle cx="129.062" cy="362.764" r="6.291"/>
	<circle cx="345.241" cy="346.491" r="4.3"/>
	<circle cx="352.474" cy="332.956" r="4.3"/>
	<circle cx="359.706" cy="319.421" r="4.3"/>
	<circle cx="366.938" cy="305.886" r="4.3"/>
	<circle cx="374.171" cy="292.35" r="4.3"/>
	<circle cx="381.403" cy="278.815" r="4.3"/>
	<circle cx="388.636" cy="265.28" r="4.3"/>
	<circle cx="395.868" cy="251.745" r="4.3"/>
	<circle cx="403.1" cy="238.21" r="4.3"/>
	<circle cx="340.702" cy="335.252" r="4.3"/>
	<circle cx="347.934" cy="321.716" r="4.3"/>
	<circle cx="355.167" cy="308.181" r="4.3"/>
	<circle cx="362.399" cy="294.646" r="4.3"/>
	<circle cx="369.632" cy="281.111" r="4.3"/>
	<circle cx="376.864" cy="267.576" r="4.3"/>
	<circle cx="384.096" cy="254.04" r="4.3"/>
	<circle cx="391.329" cy="240.505" r="4.3"/>
	<circle cx="398.561" cy="226.97" r="4.3"/>
	<circle cx="336.064" cy="324.172" r="4.3"/>
	<circle cx="343.297" cy="310.637" r="4.3"/>
	<circle cx="350.529" cy="297.102" r="4.3"/>
	<circle cx="357.761" cy="283.566" r="4.3"/>
	<circle cx="364.994" cy="270.031" r="4.3"/>
	<circle cx="372.226" cy="256.496" r="4.3"/>
	<circle cx="379.459" cy="242.961" r="4.3"/>
	<circle cx="386.691" cy="229.425" r="4.3"/>
	<circle cx="331.525" cy="312.932" r="4.3"/>
	<circle cx="338.757" cy="299.397" r="4.3"/>
	<circle cx="345.99" cy="285.862" r="4.3"/>
	<circle cx="353.222" cy="272.327" r="4.3"/>
	<circle cx="360.455" cy="258.792" r="4.3"/>
	<circle cx="367.687" cy="245.256" r="4.3"/>
	<circle cx="374.919" cy="231.721" r="4.3"/>
	<circle cx="382.152" cy="218.186" r="4.3"/>
	<circle cx="410.448" cy="224.68" r="4.3"/>
	<circle cx="417.681" cy="211.144" r="4.3"/>
	<circle cx="424.913" cy="197.609" r="4.3"/>
	<circle cx="432.146" cy="184.074" r="4.3"/>
	<circle cx="439.378" cy="170.539" r="4.3"/>
	<circle cx="446.61" cy="157.004" r="4.3"/>
	<circle cx="405.909" cy="213.44" r="4.3"/>
	<circle cx="413.142" cy="199.905" r="4.3"/>
	<circle cx="420.374" cy="186.37" r="4.3"/>
	<circle cx="427.606" cy="172.834" r="4.3"/>
	<circle cx="434.839" cy="159.299" r="4.3"/>
	<circle cx="394.039" cy="215.895" r="4.3"/>
	<circle cx="401.271" cy="202.36" r="4.3"/>
	<circle cx="408.504" cy="188.825" r="4.3"/>
	<circle cx="415.736" cy="175.29" r="4.3"/>
	<circle cx="422.968" cy="161.755" r="4.3"/>
	<circle cx="389.5" cy="204.656" r="4.3"/>
	<circle cx="396.732" cy="191.121" r="4.3"/>
	<circle cx="403.964" cy="177.586" r="4.3"/>
	<circle cx="411.197" cy="164.05" r="4.3"/>
	<path d="M471.57,130.517c-1.889-5.104-5.751-9.238-10.551-11.803l-31.376-16.766c-0.936-0.499-2.032-0.608-3.047-0.299   c-0.18,0.055-19.225,6.96-20.852,7.583c-2.43-6.858-5.133-13.721-8.057-20.449c-0.853-1.961-3.098-2.906-5.095-2.143   c-6.862,2.619-13.655,5.501-20.247,8.589c-3.155-6.532-6.586-13.041-10.225-19.396c-1.069-1.866-3.422-2.556-5.328-1.556   c-6.47,3.39-12.844,7.028-18.997,10.843c-3.845-6.122-7.958-12.185-12.258-18.068c-1.274-1.742-3.7-2.16-5.482-0.945   c-6.013,4.098-11.91,8.432-17.574,12.915c-4.495-5.644-9.251-11.198-14.176-16.556c-1.462-1.59-3.921-1.732-5.558-0.321   c-5.507,4.752-10.872,9.722-15.99,14.812c-5.108-5.105-10.465-10.09-15.967-14.854c-1.631-1.413-4.089-1.277-5.554,0.307   c-4.949,5.347-9.733,10.895-14.259,16.533c-5.672-4.498-11.584-8.847-17.62-12.959c-1.778-1.21-4.194-0.8-5.471,0.931   c-4.346,5.891-8.504,11.959-12.394,18.088c-6.193-3.829-12.609-7.475-19.122-10.865c-1.896-0.988-4.235-0.31-5.308,1.541   c-3.696,6.374-7.188,12.909-10.405,19.475c-6.658-3.087-13.523-5.961-20.459-8.564c0,0-1.891-0.354-2.844,0.013L13.902,134.169   c-11.168,4.304-16.753,16.892-12.45,28.06l90.812,235.684c3.205,8.317,11.346,13.906,20.258,13.906c2.668,0,5.292-0.489,7.8-1.456   l123.486-47.568c13.578-5.231,27.836-5.857,40.755-1.889c2.922,0.897,5.722,2.142,8.417,3.585   c8.015,4.293,28.984,15.514,28.984,15.514c3.141,1.678,6.672,2.564,10.214,2.564c8.034,0,15.375-4.398,19.159-11.479   l119.034-222.768C473.315,142.815,473.758,136.43,471.57,130.517z M419.518,112.41L318.245,301.94l87.954-184.343   C408.719,116.682,417.558,113.149,419.518,112.41z M398.979,114.15L292.3,337.74l81.381-234.278   c5.915-2.83,12.005-5.501,18.182-7.952C394.448,101.668,396.826,107.917,398.979,114.15z M357.084,83.187   c3.224,5.798,6.25,11.705,9.05,17.618l-78.023,224.612l51.944-232.261C345.57,89.676,351.272,86.33,357.084,83.187z    M321.359,74.933c3.827,5.381,7.473,10.894,10.897,16.444l-55.46,247.983l28.826-252.593   C310.694,82.684,315.963,78.713,321.359,74.933z M285.039,70.77c4.396,4.908,8.624,9.968,12.635,15.087l-28.099,246.224   l1.454-248.062C275.521,79.491,280.209,75.047,285.039,70.77z M248.483,70.719c5.024,4.466,9.894,9.112,14.543,13.847   l-1.466,250.136L235.763,85.794C239.805,80.676,244.062,75.62,248.483,70.719z M212.043,74.798   c5.412,3.793,10.692,7.775,15.768,11.869l27.082,261.322L200.547,92.012C204.147,86.202,207.999,80.428,212.043,74.798z    M176.077,83.03c5.594,3.008,11.086,6.208,16.41,9.537l54.053,254.596l-79.699-246.401   C169.704,94.805,172.794,88.859,176.077,83.03z M159.274,103.361l58.42,180.614L145.807,97.408   C150.372,99.285,154.868,101.279,159.274,103.361z M71.997,120.358l29.51-11.37l100.668,261.264l-29.51,11.37L71.997,120.358z    M16.779,141.634l47.753-18.4l3.577,9.284L8.067,155.653C7.534,149.713,10.943,143.883,16.779,141.634z M10.443,163.311   l60.542-23.328l87.761,227.766l-60.542,23.328L10.443,163.311z M117.447,402.898c-1.586,0.611-3.243,0.921-4.924,0.921   c-4.339,0-8.382-2.103-10.937-5.472l60.037-23.133l3.577,9.284L117.447,402.898z M209.639,367.375L108.971,106.111L136.5,95.504   l100.668,261.264L209.639,367.375z M463.317,144.552L344.283,367.319c-2.39,4.472-7.027,7.249-12.104,7.249   c-2.263,0-4.431-0.545-6.444-1.621l-28.286-15.114L429.401,110.89l28.286,15.115c3.229,1.725,5.593,4.604,6.656,8.107   C465.406,137.615,465.042,141.323,463.317,144.552z"/>
</g>
</svg>